<?xml version="1.0" encoding="UTF-8" standalone="no"?>
<svg
   xmlns:dc="http://purl.org/dc/elements/1.1/"
   xmlns:cc="http://creativecommons.org/ns#"
   xmlns:rdf="http://www.w3.org/1999/02/22-rdf-syntax-ns#"
   xmlns:svg="http://www.w3.org/2000/svg"
   xmlns="http://www.w3.org/2000/svg"
   viewBox="0 0 1001.9946 487.54593"
   height="487.54593"
   width="1001.9946"
   id="svg10"
   version="1.1">
  <style
     id="style890" />
  <metadata
     id="metadata16">
    <rdf:RDF>
      <cc:Work
         rdf:about="">
        <dc:format>image/svg+xml</dc:format>
        <dc:type
           rdf:resource="http://purl.org/dc/dcmitype/StillImage" />
        <dc:title></dc:title>
      </cc:Work>
    </rdf:RDF>
  </metadata>
  <defs
     id="defs14" />
  <g
     id="layer1"
     transform="translate(-43.978153,-18.38033)">
    <path
       id="path952"
       d="m 812.10883,109.49124 -1.17103,5.26963 c 0,0 -15.80889,4.09861 -22.83507,10.53927 -7.02617,6.44066 -24.59161,21.66404 -38.64396,26.93367 -34.00844,11.61208 -69.66875,-13.27896 -66.74868,-47.42669 2.87981,-33.24923 22.40078,-43.840604 52.69632,-42.742566 13.46684,0.585515 24.59162,9.368235 31.03228,12.881323 6.44066,3.513087 14.05235,19.907498 21.66404,25.762643 7.61169,5.85515 24.0061,8.78272 24.0061,8.78272 z"
       style="fill:#4a3729;fill-opacity:1;stroke:none;stroke-width:1px;stroke-linecap:butt;stroke-linejoin:miter;stroke-opacity:1" />
    <path
       id="path23"
       style="fill:#4a3729;fill-opacity:1;stroke:none;stroke-width:1px;stroke-linecap:butt;stroke-linejoin:miter;stroke-opacity:1"
       d="m 350.58789,82.054688 c 0,0 -5.63779,8.198486 -20.49805,21.521482 -14.86026,13.32299 -46.11808,15.88601 -62.51562,16.39844 -16.39753,0.51242 -33.81836,-6.66211 -33.81836,-6.66211 l 13.32226,-14.861328 -0.51171,-10.248047 -11.78711,0.513672 -21.52149,22.544923 c 0,0 -43.55661,-10.24703 -56.36719,-13.833986 -12.81057,-3.58696 -54.829,-7.686179 -84.037104,-1.537109 -29.208095,6.149085 -57.48202,38.465135 -65.5898441,58.927735 -10.760879,27.15841 -10.2471399,52.26792 6.1503901,80.45117 14.38017,24.71591 45.091797,29.7207 45.091797,29.7207 -7.120368,32.25768 0.283,61.33385 28.333809,67.08668 28.529582,4.05266 60.668132,-11.80469 78.076312,-40.81833 16.90996,-28.18326 27.33207,-62.13944 27.33207,-62.13944 0,0 16.39789,1.02578 15.37304,3.58789 -1.02484,2.56211 -1.02539,17.93555 -1.02539,17.93555 7.96458,1.55193 12.17203,5.37483 20.49805,4.61133 0,0 -2.97967,-9.19715 -2.46725,-18.42076 0.51242,-9.22361 8.10397,-18.98745 8.10397,-18.98745 0,0 -6.66241,-2.04882 -16.39844,-2.04882 -9.73603,0 -21.52148,1.02539 -21.52148,1.02539 0,0 7.1735,-38.43303 10.24804,-50.21875 3.07453,-11.78573 17.42383,-38.94336 17.42383,-38.94336 0,0 34.84341,5.63655 50.72852,7.17382 15.8851,1.53727 51.24293,-1.53794 69.17773,-12.29882 17.9348,-10.76088 28.1836,-34.843754 28.1836,-34.843754 l -7.6875,-5.125 z M 107.50195,103.11328 c 1.21478,-0.0185 2.44524,-0.0184 3.69141,0.002 2.84839,0.0466 5.78132,0.1964 8.80469,0.46094 40.99382,3.58695 87.11132,20.4961 87.11133,20.4961 0,0 -15.37297,39.45675 -22.54688,60.97851 -7.17392,21.52176 -10.24805,31.25781 -10.24805,31.25781 0,0 -13.83591,2.05053 -26.64648,10.76172 -12.81057,8.71119 -14.34766,13.32227 -14.34766,13.32227 l 1.53711,5.63672 c 0,0 8.19812,-6.14937 18.95899,-9.73633 10.76088,-3.58696 14.86132,-4.09766 14.86132,-4.09766 -9.82834,32.12312 -25.15605,72.87426 -50.73046,85.57422 -13.93044,6.62153 -31.874324,8.83108 -42.428506,-3.56253 -10.554182,-12.39361 -11.44274,-25.99175 -8.813686,-46.65622 0,0 14.361874,1.56845 29.208984,-4.09766 15.214748,-5.80639 21.521718,-15.37263 25.621098,-25.62109 2.0497,-10.76087 1.5369,-17.423 -7.5586,-22.29101 -6.06134,-3.24409 -20.081154,-2.13555 -30.873044,5.89257 -10.50466,7.81445 -13.963822,14.09206 -17.550782,21.00977 -3.50656,6.76266 -4.996093,15.37305 -4.996093,15.37305 0,0 -15.885764,-3.62437 -25.109375,-9.77344 -17.382961,-11.58863 -24.595385,-31.22084 -27.6699222,-42.49414 -3.074537,-11.2733 -2.0501016,-33.8202 10.2480472,-53.80469 7.330244,-11.91165 26.645439,-30.746 43.042968,-37.91992 13.451099,-5.88486 28.211986,-10.43396 46.433591,-10.71094 z m -3.16992,118.14063 c 8.30431,-0.008 14.13268,6.05193 10.0293,16.96093 -3.71479,9.87588 -14.34936,16.52578 -23.060549,19.08789 -8.71119,2.56212 -23.185547,1.92188 -23.185547,1.92188 0,0 2.650213,-11.16246 4.226563,-14.73242 4.35559,-9.86414 15.372093,-19.21523 24.595703,-21.77735 2.550104,-0.98081 5.06932,-1.45864 7.39453,-1.46093 z"
       transform="translate(43.978153,18.38033)" />
    <path
       id="path910"
       style="fill:#4a3729;fill-opacity:1;stroke:none;stroke-width:1px;stroke-linecap:butt;stroke-linejoin:miter;stroke-opacity:1"
       d="m 514.1875,160.28125 c -15.66975,0.10265 -29.48855,20.433 -37.23438,32.1543 -7.88096,12.21548 -19.30859,50.4375 -19.30859,50.4375 0,0 -6.30508,0.78908 -14.58008,-0.78711 -8.27501,-1.57619 -18.91406,-11.42774 -18.91406,-11.42774 l -3.93945,6.30469 c 0,0 9.06289,8.27388 17.33789,11.82031 8.275,3.54642 16.15431,3.54688 16.15429,3.54688 0,0 -2.75729,15.7616 -5.51562,25.21875 -2.75834,9.45714 -8.66992,23.64258 -8.66992,23.64258 0,0 -4.33301,-2.36376 -5.1211,-4.33399 -0.7881,-1.97024 0.11817,-3.86713 -0.66992,-8.5957 -0.7881,-4.72857 -6.02929,-8.34766 -6.02929,-8.34766 0,0 1.91114,-3.08001 1.12304,-7.80859 -0.7881,-4.72857 -4.25195,-9.4707 -4.25195,-9.4707 1.50555,-8.36272 2.58271,-4.15196 -0.5957,-11.92774 -2.20864,-5.49352 -9.67383,-9.01562 -9.67383,-9.01562 0,0 5.2e-4,-5.91012 -2.75781,-9.0625 -2.75833,-3.15238 -7.88175,-5.12401 -16.55079,-5.91211 -8.66905,-0.78809 -15.36613,1.5761 -22.45898,6.30468 -7.09286,4.72857 -5.51758,7.88086 -5.51758,7.88086 0,0 -4.31362,-0.73487 -9.92383,4.13282 -5.61021,4.86768 -2.52996,5.72605 -5.27539,12.89453 0,0 -5.10007,2.02972 -7.07031,7.15234 -1.97024,5.12262 -3.34375,11.67969 -3.34375,11.67969 0,0 -4.72899,1.97065 -6.69922,6.69922 -1.97024,4.72858 -1.97067,6.30369 -5.12305,8.66797 -3.15239,2.36429 -13.39596,12.21529 -16.15429,15.76171 -2.75833,3.54643 -13.53013,12.59303 -19.70313,13.39844 -5.94535,-2.60924 -7.7925,-16.7435 -5.82226,-28.95898 1.97023,-12.21548 11.73336,-23.84372 14.09765,-26.9961 2.36428,-3.15238 4.33401,-13.39742 2.75782,-15.76171 -1.57619,-2.36429 -6.69771,-3.5464 -10.24414,-3.15235 -3.54643,0.39405 -9.45896,7.48728 -11.03516,9.85156 -1.57619,2.36429 -6.69727,-0.39453 -6.69727,-0.39453 0,0 19.70162,-18.12688 23.24805,-24.43164 3.54643,-6.30477 3.54643,-16.15522 0,-20.0957 -3.54643,-3.94047 -13.00333,-3.94047 -20.49023,0 -7.48691,3.94048 -17.33786,14.57948 -20.49024,23.64258 -3.15239,9.06309 -1.18164,28.37109 -1.18164,28.37109 0,0 -14.97447,17.73276 -26.00781,30.73633 -11.03333,13.00358 -24.0365,25.21863 -34.67578,34.67578 -10.63929,9.45714 -16.55078,19.30859 -16.55078,19.30859 0,0 5.12351,-3.54636 7.09375,-4.72851 1.97024,-1.18214 28.37052,-25.21868 35.85742,-31.52344 7.48691,-6.30477 33.10053,-35.07125 37.04101,-39.01172 3.94047,-3.94048 15.7617,-3.54594 17.33789,0.39453 1.57619,3.94048 -3.54636,22.85538 -4.72851,30.73633 -1.18214,7.88096 8.2831,24.5537 16.16406,25.3418 7.88095,0.78809 15.81975,-6.36959 21.73047,-9.91602 5.91071,-3.54643 15.30078,-14.63867 15.30078,-14.63867 0,0 1.35495,7.21626 4.11328,11.55078 2.75834,4.33453 9.67969,3.0293 9.67969,3.0293 0,0 -1.52113,5.27959 2.86523,9.22656 14.36645,12.88585 43.68135,8.5409 57.04883,7.32617 13.36747,-1.21472 22.44141,-7.0957 22.44141,-7.0957 0,0 7.77436,5.40188 11.71484,3.43164 3.94047,-1.97023 12.11748,-18.48643 18.03763,-28.9066 6.36655,-11.20587 26.14715,-34.16684 32.11276,-39.14809 6.41553,-5.35693 26.85761,-19.18508 34.73854,-14.45651 11.90258,10.72547 -14.57916,34.4127 -18.76582,43.09857 -4.18667,8.68586 -9.29843,25.10066 -3.00495,32.66893 6.29348,7.56827 22.23401,8.56168 37.46973,-8.50825 3.54643,-3.94048 16.94532,-20.49219 16.94532,-20.49219 0,0 -1.26339,24.26081 12.59307,30.73313 13.85646,6.47233 26.48187,-2.95343 37.05732,-17.33469 l 4.77734,11.59179 c 6.06606,7.1504 10.19666,6.92772 20.83594,8.50391 10.63929,1.57619 29.56345,-13.39126 36.31304,-18.35378 17.31163,-12.72807 34.08893,-38.81595 31.72464,-39.99809 -2.36428,-1.18214 -31.34683,27.15113 -38.04564,33.06184 -6.69881,5.91072 -27.87625,18.83678 -35.43253,12.04772 -7.10053,-6.37957 1.22737,-17.04248 5.5619,-27.28772 4.33452,-10.24524 18.00405,-25.66864 19.97429,-30.00317 1.97024,-4.33452 -2.75781,-6.69922 -2.75781,-6.69922 l -20.18632,-3.57964 c 0,0 -8.7465,23.18148 -13.75826,32.18914 -1.18214,7.09286 -9.63201,19.53105 -14.75464,25.83581 -14.6719,13.83125 -30.94618,23.49245 -32.86914,-2.03711 -0.39405,-5.12262 4.33347,-27.1899 5.51562,-30.73633 1.18214,-3.54643 12.61125,-13.00284 18.91602,-20.0957 6.30476,-7.09286 19.30777,-25.15633 24.8457,-35.45117 4.34516,-10.29484 15.06068,-30.05186 8.64844,-37.44727 -9.68716,-10.60269 -30.22477,4.13897 -39.43359,16.20508 -6.30476,7.09285 -13.37055,24.77625 -17.70508,35.02149 -4.33452,10.24524 -9.84961,48.07226 -9.84961,48.07226 0,0 -32.40277,41.94086 -44.37426,37.98317 -11.97149,-3.95769 6.49525,-31.44434 12.06176,-37.58864 5.56651,-6.1443 12.21535,-20.09611 11.0332,-26.79492 -1.18214,-6.69881 -10.24451,-15.3672 -20.0957,-13.79101 -9.85119,1.57619 -27.47363,13.27286 -34.2832,19.70117 -6.1988,5.85174 -16.15625,17.33789 -16.15625,17.33789 l 8.6621,-29.50977 c 0,0 22.86172,-20.92764 31.13672,-28.80859 8.27501,-7.88096 20.33673,-26.05522 24.02344,-33.07617 8.31752,-15.83986 0.0142,-22.08983 -2.74414,-23.66602 -3.00193,-1.55152 -5.96733,-2.22604 -8.86914,-2.20703 z m 5.65039,16.35352 c 0.3482,0.01 0.64169,0.0648 0.87305,0.16992 3.70178,1.68263 -8.68662,16.24296 -18.07813,27.04297 -9.69614,11.15032 -29.0957,30.50195 -29.0957,30.50195 6.03366,-14.8521 8.35736,-28.2007 18.81445,-41.45508 4.73239,-6.30985 22.26332,-16.40834 27.48633,-16.25976 z m 89.25391,15.60351 c 0.22092,0.009 0.40745,0.0545 0.55468,0.13867 2.35568,1.3461 1.25353,5.62928 -0.76562,11.01367 -2.01916,5.38442 -11.5029,18.47827 -16.55078,27.56446 -5.04789,9.08618 -22.14844,27.96094 -22.14844,27.96094 0,0 3.51679,-15.20387 6.20898,-22.60743 2.6922,-7.40356 8.47556,-20.46636 13.52344,-28.54297 4.7324,-7.57182 15.86385,-15.65578 19.17774,-15.52734 z m -322.33008,31.39844 c 0.70428,0.0122 1.33421,0.16289 1.85937,0.47851 2.79124,1.67753 -0.17508,7.43049 -4.83789,13.30274 -2.4189,3.62835 -15.11914,10.28125 -15.11914,10.28125 1.47381,-6.95966 0.61293,-6.71679 3.01953,-13.22461 1.58741,-4.23308 10.14819,-10.923 15.07813,-10.83789 z"
       transform="translate(43.978153,18.38033)" />
    <path
       id="path916"
       d="m 421.66637,346.6212 c 16.15322,0.33652 28.60466,-0.67305 30.96034,-2.6922 7.65313,-10.44465 -21.89247,-5.77186 -27.93161,-6.05746 -5.72093,-0.33653 -31.29686,-3.70178 -31.96992,0.67305 3.21672,10.40677 20.57041,7.62507 28.94119,8.07661 z"
       style="fill:#d47700;fill-opacity:1;stroke:none;stroke-width:1px;stroke-linecap:butt;stroke-linejoin:miter;stroke-opacity:1" />
    <path
       id="path918"
       d="m 424.91286,331.73484 c 6.6005,-0.89937 50.55566,2.07007 47.87573,-6.21575 -2.67992,-8.28581 -27.49244,-3.31296 -46.74739,-2.7912 -19.25495,0.52176 -41.11316,-6.91818 -46.55927,-0.97005 -2.04003,12.86188 32.64193,9.7629 45.43093,9.977 z"
       style="fill:#d47700;fill-opacity:1;stroke:none;stroke-width:1px;stroke-linecap:butt;stroke-linejoin:miter;stroke-opacity:1" />
    <path
       id="path920"
       d="m 429.40646,305.22857 c 19.34914,-0.0456 40.59812,-6.51227 41.0561,3.70178 -0.91058,7.91813 -26.22661,7.23621 -43.92578,7.40356 -17.69918,0.16736 -42.70726,-1.49589 -38.46347,-9.75924 4.36252,-7.13189 21.98401,-1.3005 41.33315,-1.3461 z"
       style="fill:#d47700;fill-opacity:1;stroke:none;stroke-width:1px;stroke-linecap:butt;stroke-linejoin:miter;stroke-opacity:1" />
    <path
       id="path922"
       d="m 428.84229,298.30994 c 7.18855,-1.11337 37.09459,2.23269 37.24544,-8.89806 -4.15912,-8.83059 -14.24633,-3.28332 -34.70183,-3.47414 -20.45551,-0.19081 -33.70994,-5.72379 -34.95894,0.78193 -4.78862,13.26659 20.39997,11.55966 32.41533,11.59027 z"
       style="fill:#d47700;fill-opacity:1;stroke:none;stroke-width:1px;stroke-linecap:butt;stroke-linejoin:miter;stroke-opacity:1" />
    <path
       id="path924"
       d="m 431.42561,278.64306 c 3.77104,0.63724 35.7533,0.86109 27.59509,-8.41313 -8.9051,-4.49904 -19.99232,-0.29157 -28.26814,-0.67306 -5.72093,-0.33652 -22.58673,-5.50317 -24.497,0.23753 -3.5515,8.94709 18.23414,8.27772 25.17005,8.84866 z"
       style="fill:#d47700;fill-opacity:1;stroke:none;stroke-width:1px;stroke-linecap:butt;stroke-linejoin:miter;stroke-opacity:1" />
    <path
       id="path926"
       d="m 445.55968,259.79764 c 4.24986,-9.12913 -21.24945,-11.76456 -23.57654,-3.80078 -0.10143,9.3337 21.9791,8.73291 23.57654,3.80078 z"
       style="fill:#d47700;fill-opacity:1;stroke:none;stroke-width:1px;stroke-linecap:butt;stroke-linejoin:miter;stroke-opacity:1" />
    <path
       id="path934"
       style="opacity:1;fill:#4a3729;fill-opacity:1;stroke:none;stroke-width:1px;stroke-linecap:butt;stroke-linejoin:miter;stroke-opacity:1"
       d="m 812.31601,188.05932 c -10.77794,15.9858 -19.83084,42.8926 -29.52695,67.57545 -8.65226,8.46666 -8.13978,10.37883 -16.18958,20.15172 -8.4631,9.02237 -44.10255,38.68939 -55.5396,40.08169 -9.99953,0.29176 -19.26657,-3.39228 -20.35819,-14.01203 -0.29643,-10.61975 12.38126,-29.01754 23.67619,-35.96276 21.5408,-13.24537 35.69634,-2.31136 35.69634,-2.31136 0,0 -5.94079,13.25251 -4.55274,16.72266 1.38806,3.47014 7.75196,-0.77539 7.75196,-0.77539 l 16.84375,-43.20118 -5.55274,-3.4707 -7.32812,11.10547 c 0,0 -14.9709,-3.79583 -25.47351,-1.9369 -10.5026,1.85894 -19.04349,5.82232 -28.55774,12.8457 -9.89434,7.30398 -13.81388,11.0992 -19.40039,20.39003 -6.68649,11.12018 -10.71624,24.95219 -7.2461,36.05664 3.47014,11.10445 16.03892,17.04082 27.21086,18.9803 11.17194,1.93947 27.45138,-9.97226 32.41007,-13.29722 C 759.61893,301.2846 780.52734,274.5 780.52734,274.5 c 0,0 -6.46326,17.38126 -9.6325,28.41847 -6.90857,6.13372 -12.45998,14.60528 -14.7472,21.67206 -2.77612,9.02237 -5.9857,9.01583 0.26056,11.09792 6.24625,2.08208 9.82006,-0.7131 17.12231,-14 7.59837,-16.6522 15.16652,-25.5354 22.34813,-33.93421 7.68449,-9.40462 29.2475,-27.92034 38.81783,-30.83266 9.57033,-2.91232 15.93544,2.63103 13.94006,10.03257 -2.48691,9.22478 -20.22175,29.75524 -22.99786,39.47163 -2.77612,9.7164 -1.51944,17.74524 4.03279,23.99149 5.55222,6.24626 19.16693,1.1017 24.71916,-2.36844 3.39975,-2.12484 10.76321,-6.8512 10.76321,-6.8512 0,0 3.28844,2.083 4.90281,3.96643 4.16417,4.8582 14.86491,11.69722 27.35742,13.7793 12.49251,2.08209 28.90808,-3.36836 39.31851,-8.22656 10.41042,-4.85819 30.65813,-21.24366 36.21033,-26.79589 5.5522,-5.55222 15.99942,-16.75697 12.9043,-19.45781 -2.83698,-2.47559 -6.71287,3.71395 -16.54447,11.55057 -7.0485,5.84866 -19.85151,17.93164 -36.50819,25.56595 -16.65668,7.63432 -27.41544,7.68519 -38.89162,3.61652 -10.45606,-3.70701 -16.67708,-12.45465 -16.67708,-12.45465 11.96636,-12.09394 25.528,-19.48744 34.97333,-30.84107 8.33536,-10.3163 13.74494,-31.80703 7.09407,-37.85799 -4.41607,-4.01775 -13.23084,-2.77678 -22.94723,0.69336 -9.7164,3.47015 -21.9155,15.07309 -28.85578,28.95366 -6.94029,13.88056 -7.84441,36.20497 -7.15039,40.36914 0,0 -10.73767,9.07773 -16.28222,8.95968 -5.54455,-0.11805 -11.52978,-4.49637 -9.66059,-11.18022 2.3857,-8.53074 14.25621,-24.55116 20.34227,-32.67868 6.08606,-8.12753 11.6411,-22.14197 -1.32893,-32.30105 -12.97003,-10.15908 -49.07722,15.8146 -62.34591,33.99521 l 7.86018,-27.90594 c 14.39524,-14.86041 42.95815,-42.28117 49.2376,-49.46992 14.34694,-20.80289 9.60462,-35.6074 1.04105,-39.3924 -8.56356,-3.78499 -26.10934,7.98826 -36.88728,23.97405 z m 36.60782,-8.11986 c 4.72797,4.15533 -14.90829,22.67783 -17.91175,26.4847 -3.00346,3.80687 -28.38903,31.23014 -28.38903,31.23014 0,0 4.75829,-27.21569 16.82117,-38.35545 12.06288,-11.13976 24.75164,-23.51472 29.47961,-19.35939 z m 57.98437,77.30663 c 0.85447,0.0186 1.64169,0.2475 2.33203,0.73633 3.44581,2.43997 -2.88458,13.82081 -8.00976,19.50977 -4.72761,5.68896 -25.79513,24.18246 -25.79513,24.18246 0,0 0.59121,-14.19528 4.98698,-22.69851 4.76395,-8.4803 14.14237,-22.3495 26.48588,-21.73005 z"
       transform="translate(43.978153,18.38033)" />
    <path
       id="path936"
       d="m 688.95028,223.00296 c -2.76542,5.58668 -2.48733,12.03971 2.62519,14.2038 5.11252,2.16409 11.47524,-3.31921 13.55732,-6.78935 2.08209,-3.47014 0.84496,-10.56136 -2.77611,-12.49251 -2.08209,-3.47014 -10.64097,-0.50863 -13.4064,5.07806 z"
       style="fill:#4a3729;fill-opacity:1;stroke:none;stroke-width:1px;stroke-linecap:butt;stroke-linejoin:miter;stroke-opacity:1" />
    <path
       id="path948"
       d="m 716.28425,64.764361 c 8.78272,-27.519189 16.19459,-37.245172 23.80628,-41.343775 7.61169,-4.098602 15.22338,-5.855146 21.07853,-4.684117 11.76911,6.015425 10.88567,10.231844 11.71029,19.907499 l -25.16316,27.862968 z"
       style="fill:#4a3729;fill-opacity:1;stroke:none;stroke-width:1px;stroke-linecap:butt;stroke-linejoin:miter;stroke-opacity:1" />
    <path
       id="path950"
       d="m 729.55127,55.623893 c 0,0 3.51308,-11.124779 8.1972,-16.394411 4.98619,-8.739915 23.82221,-15.807538 26.93368,-5.855146 1.17103,4.684117 4.68411,14.637866 -1.17103,18.736469 -5.85515,4.098602 -33.95985,3.513088 -33.95985,3.513088 z"
       style="fill:#948178;fill-opacity:1;stroke:none;stroke-width:1px;stroke-linecap:butt;stroke-linejoin:miter;stroke-opacity:1" />
    <path
       id="path954"
       d="m 792.78685,114.17536 -15.22338,10.53926 c 0,0 -3.51309,-5.26963 -4.0986,-11.12478 -0.58552,-5.85514 3.51308,-15.808892 3.51308,-15.808892 z"
       style="fill:#d47700;fill-opacity:1;stroke:none;stroke-width:1px;stroke-linecap:butt;stroke-linejoin:miter;stroke-opacity:1" />
    <path
       id="path956"
       d="m 761.75457,139.938 7.02618,-7.02617 c 0,0 -7.02618,-14.05235 -5.85515,-19.9075 1.17103,-5.85515 7.61169,-21.664043 7.61169,-21.664043 l -14.05235,-7.026176 c 0,0 -7.02617,12.295808 -6.44066,22.835069 -0.0325,13.46247 3.81462,22.06262 11.71029,32.78882 z"
       style="fill:#d47700;fill-opacity:1;stroke:none;stroke-width:1px;stroke-linecap:butt;stroke-linejoin:miter;stroke-opacity:1" />
    <path
       id="path946"
       d="m 736.57744,103.05058 c 1.75655,-25.17713 7.61169,-40.986026 12.29581,-46.841173 4.68412,-5.855146 16.97993,-16.979925 25.76265,-18.736469 8.78272,-1.756544 20.49301,1.17103 25.17713,5.855147 8.38741,16.957271 -2.87055,37.374891 -18.73647,43.328085 -6.44066,2.342058 -44.49912,16.39441 -44.49912,16.39441 z"
       style="fill:#4a3729;fill-opacity:1;stroke:none;stroke-width:1px;stroke-linecap:butt;stroke-linejoin:miter;stroke-opacity:1" />
    <path
       id="path958"
       d="m 743.60362,147.54969 8.1972,-4.0986 c 0,0 -12.2958,-21.2085 -12.88132,-27.64917 -0.94777,-19.354758 -2.52654,-22.800202 5.85515,-39.685014 l -7.61169,-2.927573 c 0,0 -11.13875,19.308014 -11.13875,28.090737 -1.34296,21.7285 3.91139,30.82983 17.57941,46.26962 z"
       style="fill:#d47700;fill-opacity:1;stroke:none;stroke-width:1px;stroke-linecap:butt;stroke-linejoin:miter;stroke-opacity:1" />
    <path
       id="path960"
       d="m 723.69612,71.432789 c -21.5652,-4.978863 -33.88802,20.576126 -32.18042,39.755251 4.21075,25.65339 18.97194,35.40448 39.63768,37.04689 0,0 -8.04277,-5.36936 -13.3124,-19.42171 -5.26964,-14.05235 -4.09861,-24.59161 -2.92758,-32.203297 1.17103,-7.611694 8.78272,-25.177134 8.78272,-25.177134 z"
       style="fill:#d47700;fill-opacity:1;stroke:none;stroke-width:1px;stroke-linecap:butt;stroke-linejoin:miter;stroke-opacity:1" />
    <path
       id="path962"
       d="m 707.88722,104.22161 c 2.92758,-1.75654 5.26964,-4.684118 4.68412,-7.611691 -0.58551,-2.927573 -2.92757,-6.440661 -6.44066,-4.684117 -3.51309,1.756544 -7.02618,6.440661 -5.85515,8.782718 1.17103,2.34206 7.61169,3.51309 7.61169,3.51309 z"
       style="fill:#4a3729;fill-opacity:1;stroke:none;stroke-width:1px;stroke-linecap:butt;stroke-linejoin:miter;stroke-opacity:1" />
    <path
       id="path964"
       d="m 697.65203,124.37412 c 4.91711,4.33863 10.9912,4.91711 10.9912,4.91711 0,0 4.62787,-3.76014 4.91711,-6.65257 0.28925,-2.89242 -4.04939,-2.31393 -5.20635,-1.15696 -1.15697,1.15696 -5.78485,0.57848 -7.23106,-0.28925 -1.44621,-0.86772 -3.4709,3.18167 -3.4709,3.18167 z"
       style="fill:#4a3729;fill-opacity:1;stroke:none;stroke-width:1px;stroke-linecap:butt;stroke-linejoin:miter;stroke-opacity:1" />
    <path
       id="path944"
       d="m 747.0748,90.225134 c 0,0 4.49755,-12.575804 15.53922,-30.047106 11.04166,-17.471302 38.67728,-13.739577 33.68592,-1.041047 -4.0986,8.78272 -17.30974,20.093356 -26.09246,23.606444 -8.78272,3.513088 -23.13268,7.481709 -23.13268,7.481709 z"
       style="fill:#948178;fill-opacity:1;stroke:none;stroke-width:1px;stroke-linecap:butt;stroke-linejoin:miter;stroke-opacity:1" />
    <path
       id="path974"
       d="m 827.94429,112.41625 c 0,0 54.81306,9.24144 71.59336,18.80952 27.06304,15.43129 40.39399,24.28281 52.73094,37.62885 18.30421,19.80137 11.05957,41.16187 -7.91454,42.69814 -10.45054,0.84614 -8.69763,-21.25818 3.63493,-26.89847 13.9464,-6.37838 58.15892,10.90479 73.42552,26.89847 15.2667,15.99368 22.5366,36.34927 21.8096,55.25089 -10e-5,13.81272 -12.592,35.09868 -12.592,35.09868"
       style="fill:none;stroke:#4a3729;stroke-width:5.4;stroke-linecap:round;stroke-linejoin:miter;stroke-miterlimit:4;stroke-dasharray:10.8, 10.8;stroke-dashoffset:0;stroke-opacity:1" />
    <path
       id="path976"
       d="m 371.81542,416.41778 c 0,0 -0.30632,10.65735 -0.30632,26.73382 v 51.76068"
       style="font-variation-settings:normal;opacity:1;vector-effect:none;fill:none;fill-opacity:1;stroke:#4a3729;stroke-width:8;stroke-linecap:round;stroke-linejoin:miter;stroke-miterlimit:4;stroke-dasharray:none;stroke-dashoffset:0;stroke-opacity:1;stop-color:#000000;stop-opacity:1" />
    <path
       id="path978"
       d="m 224.72387,427.07513 c 0,0 17.47443,-13.97955 30.05602,-17.47444 12.58159,-3.49488 30.755,-1.39795 34.94887,2.79591 4.19386,4.19387 7.68875,16.77546 -2.79591,22.36728 -10.48466,5.59181 -51.72432,15.3775 -51.72432,15.3775 0,0 27.26011,-6.98978 44.73454,-6.2908 17.47444,0.69898 27.9591,3.49489 31.45398,12.58159 3.49489,9.08671 -3.49489,16.07648 -10.48466,20.96932 -6.98977,4.89284 -20.27034,9.08671 -37.04579,9.78568 -10.68303,0.44513 -32.15296,0.69898 -32.15296,0.69898 l -0.69898,-0.69898"
       style="fill:none;stroke:#4a3729;stroke-width:8;stroke-linecap:round;stroke-linejoin:miter;stroke-miterlimit:4;stroke-dasharray:none;stroke-opacity:1" />
    <path
       id="path980"
       d="m 243.59626,422.88126 v 63.60693"
       style="font-variation-settings:normal;opacity:1;vector-effect:none;fill:none;fill-opacity:1;stroke:#4a3729;stroke-width:8;stroke-linecap:round;stroke-linejoin:miter;stroke-miterlimit:4;stroke-dasharray:none;stroke-dashoffset:0;stroke-opacity:1;stop-color:#000000;stop-opacity:1" />
    <path
       id="path996"
       d="m 498.72297,415.89149 c 0,0 -7.68875,5.59182 -27.26012,6.98977 -19.57136,1.39796 -44.03557,-0.69898 -40.54068,-6.29079 3.49489,-5.59182 9.78568,9.78568 8.38773,20.27034 -1.39796,10.48466 -2.10098,56.54849 -2.10098,56.54849 0,0 6.31908,-0.64647 22.39555,-2.7434 16.07648,-2.09693 34.22566,1.41411 34.22566,1.41411"
       style="font-variation-settings:normal;opacity:1;vector-effect:none;fill:none;fill-opacity:1;stroke:#4a3729;stroke-width:8;stroke-linecap:round;stroke-linejoin:miter;stroke-miterlimit:4;stroke-dasharray:none;stroke-dashoffset:0;stroke-opacity:1;stop-color:#000000;stop-opacity:1" />
    <path
       id="path998"
       d="m 470.0649,460.62604 c 0,0 -11.88262,2.09693 -19.57137,0.69897 -7.68875,-1.39795 -22.36727,-6.29079 -22.36727,-6.29079"
       style="font-variation-settings:normal;opacity:1;vector-effect:none;fill:none;fill-opacity:1;stroke:#4a3729;stroke-width:8;stroke-linecap:round;stroke-linejoin:miter;stroke-miterlimit:4;stroke-dasharray:none;stroke-dashoffset:0;stroke-opacity:1;stop-color:#000000;stop-opacity:1" />
    <path
       id="path1014"
       d="m 544.56121,493.2756 c 0,0 4.19386,-8.22212 4.70886,-24.75845 0.52401,-16.82545 -0.22074,-38.64612 -7.21051,-43.53896 -6.98977,-4.89284 23.89407,23.32394 36.12608,32.81518 12.23201,9.49124 33.07671,32.23818 33.07671,32.23818 0,0 2.73765,-23.5287 1.37553,-40.35003 -1.36212,-16.82133 -5.40197,-31.63675 -8.36934,-42.17776"
       style="font-variation-settings:normal;opacity:1;vector-effect:none;fill:none;fill-opacity:1;stroke:#4a3729;stroke-width:8;stroke-linecap:round;stroke-linejoin:miter;stroke-miterlimit:4;stroke-dasharray:none;stroke-dashoffset:0;stroke-opacity:1;stop-color:#000000;stop-opacity:1" />
    <path
       id="path1051"
       d="m 156.92307,456.43217 c 0,0 -7.1316,-1.39795 -12.72342,6.98977 -5.59182,8.38773 -9.64385,16.07648 -4.75101,18.17341 4.89284,2.09694 13.28057,-7.68875 14.67852,-11.18363 1.39796,-3.49489 4.89284,-16.77546 4.89284,-9.78568 0,6.98977 2.77559,18.73055 7.66844,21.52646 4.89284,2.79591 14.99135,2.61297 8.70056,-10.6676 -6.2908,-13.28056 -14.27206,-13.65477 -14.27206,-13.65477 0,0 7.14175,-0.13167 15.52948,-5.02451 8.38773,-4.89284 13.90917,-8.13616 12.43977,-12.02444 -3.6404,-9.63308 -9.5546,-3.47021 -17.24335,2.12161 -7.68875,5.59182 -12.82284,10.03449 -12.82284,10.03449 0,0 8.80305,-15.24583 10.89999,-21.53662 2.09693,-6.2908 6.57445,-18.30508 0.28365,-19.00406 -6.2908,-0.69898 -11.59896,9.20822 -11.59896,16.89697 0,7.68875 -0.98263,19.44985 -0.98263,19.44985 0,0 -10.33267,-3.7887 -14.52654,-9.38052 -4.19386,-5.59182 -10.93046,-5.43983 -15.12432,-1.24597 -4.19386,4.19387 0.25318,9.66418 6.54398,11.06213 6.29079,1.39796 16.11711,1.66129 16.11711,1.66129"
       style="font-variation-settings:normal;opacity:1;vector-effect:none;fill:none;fill-opacity:1;stroke:#4a3729;stroke-width:10;stroke-linecap:round;stroke-linejoin:miter;stroke-miterlimit:4;stroke-dasharray:none;stroke-dashoffset:0;stroke-opacity:1;stop-color:#000000;stop-opacity:1" />
    <path
       style="font-variation-settings:normal;opacity:1;vector-effect:none;fill:none;fill-opacity:1;stroke:#4a3729;stroke-width:8;stroke-linecap:round;stroke-linejoin:miter;stroke-miterlimit:4;stroke-dasharray:none;stroke-dashoffset:0;stroke-opacity:1;stop-color:#000000;stop-opacity:1"
       d="m 727.3969,415.28301 c 0,0 -7.68875,5.59182 -27.26012,6.98977 -19.57136,1.39796 -44.03557,-0.69898 -40.54068,-6.29079 3.49489,-5.59182 9.78568,9.78568 8.38773,20.27034 -1.39796,10.48466 -2.10098,56.54849 -2.10098,56.54849 0,0 6.31908,-0.64647 22.39555,-2.7434 16.07648,-2.09693 34.22566,1.41411 34.22566,1.41411"
       id="path996-2" />
    <path
       style="font-variation-settings:normal;opacity:1;vector-effect:none;fill:none;fill-opacity:1;stroke:#4a3729;stroke-width:8;stroke-linecap:round;stroke-linejoin:miter;stroke-miterlimit:4;stroke-dasharray:none;stroke-dashoffset:0;stroke-opacity:1;stop-color:#000000;stop-opacity:1"
       d="m 698.73883,460.01756 c 0,0 -11.88262,2.09693 -19.57137,0.69897 -7.68875,-1.39795 -22.36727,-6.29079 -22.36727,-6.29079"
       id="path998-3" />
    <path
       style="font-variation-settings:normal;opacity:1;vector-effect:none;fill:none;fill-opacity:1;stroke:#4a3729;stroke-width:8;stroke-linecap:round;stroke-linejoin:miter;stroke-miterlimit:4;stroke-dasharray:none;stroke-dashoffset:0;stroke-opacity:1;stop-color:#000000;stop-opacity:1"
       d="m 773.23514,492.66712 c 0,0 4.19386,-8.22212 4.70886,-24.75845 0.52401,-16.82545 -0.22074,-38.64612 -7.21051,-43.53896 -6.98977,-4.89284 23.89407,23.32394 36.12608,32.81518 12.23201,9.49124 33.07671,32.23818 33.07671,32.23818 0,0 2.73765,-23.5287 1.37553,-40.35003 -1.36212,-16.82133 -5.40197,-31.63675 -8.36934,-42.17776"
       id="path1014-9" />
    <path
       style="fill:#4a3729;fill-opacity:1;stroke:none;stroke-width:1px;stroke-linecap:butt;stroke-linejoin:miter;stroke-opacity:1"
       d="m 440.09401,206.93828 c -2.76542,5.58668 -2.48733,12.03971 2.62519,14.2038 5.11252,2.16409 11.47524,-3.31921 13.55732,-6.78935 2.08209,-3.47014 0.84496,-10.56136 -2.77611,-12.49251 -2.08209,-3.47014 -10.64097,-0.50863 -13.4064,5.07806 z"
       id="path936-4" />
    <path
       style="fill:#4a3729;fill-opacity:1;stroke:none;stroke-width:1px;stroke-linecap:butt;stroke-linejoin:miter;stroke-opacity:1"
       d="m 407.31359,201.83465 c -2.76542,5.58668 -2.48733,12.03971 2.62519,14.2038 5.11252,2.16409 11.47524,-3.31921 13.55732,-6.78935 2.08209,-3.47014 0.84496,-10.56136 -2.77611,-12.49251 -2.08209,-3.47014 -10.64097,-0.50863 -13.4064,5.07806 z"
       id="path936-1" />
    <path
       style="font-variation-settings:normal;opacity:1;vector-effect:none;fill:none;fill-opacity:1;stroke:#4a3729;stroke-width:10;stroke-linecap:round;stroke-linejoin:miter;stroke-miterlimit:4;stroke-dasharray:none;stroke-dashoffset:0;stroke-opacity:1;stop-color:#000000;stop-opacity:1"
       d="m 905.33286,460.71527 c 0,0 -7.1316,-1.39795 -12.72342,6.98977 -5.59182,8.38773 -9.64385,16.07648 -4.75101,18.17341 4.89284,2.09694 13.28057,-7.68875 14.67852,-11.18363 1.39796,-3.49489 4.89284,-16.77546 4.89284,-9.78568 0,6.98977 2.77559,18.73055 7.66844,21.52646 4.89284,2.79591 14.99134,2.61297 8.70056,-10.6676 -6.2908,-13.28056 -14.27206,-13.65477 -14.27206,-13.65477 0,0 7.14175,-0.13167 15.52948,-5.02451 8.38772,-4.89284 13.90916,-8.13616 12.43976,-12.02444 -3.6404,-9.63308 -9.5546,-3.47021 -17.24334,2.12161 -7.68875,5.59182 -12.82284,10.03449 -12.82284,10.03449 0,0 8.80305,-15.24583 10.89999,-21.53662 2.09693,-6.2908 6.57445,-18.30508 0.28365,-19.00406 -6.2908,-0.69898 -11.59896,9.20822 -11.59896,16.89697 0,7.68875 -0.98263,19.44985 -0.98263,19.44985 0,0 -10.33267,-3.7887 -14.52654,-9.38052 -4.19386,-5.59182 -10.93046,-5.43983 -15.12432,-1.24597 -4.19386,4.19387 0.25318,9.66418 6.54398,11.06213 6.29079,1.39796 16.11711,1.66129 16.11711,1.66129"
       id="path1051-1" />
  </g>
</svg>
